<svg width="23" height="26" viewBox="0 0 23 26" fill="none" xmlns="http://www.w3.org/2000/svg">
<path fill-rule="evenodd" clip-rule="evenodd" d="M22.75 7.3125V22.75C22.75 23.612 22.4076 24.4386 21.7981 25.0481C21.1886 25.6576 20.362 26 19.5 26H17.875V24.375H19.5C19.931 24.375 20.3443 24.2038 20.649 23.899C20.9538 23.5943 21.125 23.181 21.125 22.75V7.3125H17.875C17.2285 7.3125 16.6085 7.05569 16.1514 6.59857C15.6943 6.14145 15.4375 5.52147 15.4375 4.875V1.625H6.5C6.06902 1.625 5.6557 1.7962 5.35095 2.10095C5.0462 2.4057 4.875 2.81902 4.875 3.25V17.875H3.25V3.25C3.25 2.38805 3.59241 1.5614 4.2019 0.951903C4.8114 0.34241 5.63805 0 6.5 0L15.4375 0L22.75 7.3125ZM5.71513 24.1166C5.72443 24.3727 5.78721 24.6239 5.89943 24.8543C6.01166 25.0846 6.17084 25.2889 6.36675 25.454C6.578 25.6295 6.83637 25.766 7.1435 25.8635C7.45225 25.9626 7.81137 26.0114 8.22412 26.0114C8.77337 26.0114 9.23812 25.9252 9.62 25.7546C10.0035 25.584 10.296 25.3451 10.4959 25.0396C10.699 24.7325 10.7997 24.3766 10.7997 23.9736C10.7997 23.6096 10.7266 23.3074 10.582 23.0636C10.4333 22.8202 10.2231 22.6201 9.97262 22.4835C9.68479 22.3245 9.37477 22.2095 9.05288 22.1423L8.04375 21.9083C7.80587 21.8645 7.58124 21.7667 7.38725 21.6222C7.31311 21.5651 7.25335 21.4914 7.21272 21.407C7.17209 21.3227 7.15173 21.23 7.15325 21.1364C7.15325 20.8829 7.254 20.6749 7.45387 20.5124C7.657 20.3482 7.93488 20.2654 8.28588 20.2654C8.51825 20.2654 8.71812 20.3027 8.88713 20.3759C9.04268 20.4393 9.18005 20.5404 9.28687 20.67C9.38689 20.7906 9.45406 20.935 9.48188 21.0892H10.7006C10.6803 20.7583 10.5678 20.4397 10.3756 20.1695C10.1702 19.8778 9.88938 19.6475 9.56313 19.5033C9.16409 19.3282 8.73119 19.2438 8.29562 19.2563C7.8195 19.2563 7.40025 19.3375 7.03463 19.5C6.669 19.6609 6.38462 19.89 6.17825 20.1841C5.97188 20.4799 5.8695 20.826 5.8695 21.2225C5.8695 21.5491 5.9345 21.8335 6.06775 22.074C6.201 22.3161 6.39275 22.5128 6.63975 22.6704C6.88675 22.8248 7.17925 22.9417 7.51562 23.0165L8.51987 23.2505C8.85625 23.3301 9.1065 23.4341 9.27225 23.5641C9.35323 23.6258 9.41801 23.7063 9.46103 23.7986C9.50406 23.8908 9.52404 23.9922 9.51925 24.0939C9.52239 24.2614 9.47419 24.4258 9.38112 24.5651C9.27649 24.7078 9.13247 24.8168 8.96675 24.8787C8.78638 24.9551 8.56213 24.9925 8.29562 24.9925C8.1055 24.9925 7.93325 24.9714 7.77562 24.9275C7.63197 24.8877 7.49582 24.8246 7.37263 24.7406C7.26444 24.6706 7.17183 24.5791 7.10054 24.4717C7.02925 24.3644 6.98082 24.2435 6.95825 24.1166H5.71513ZM1.30975 22.2511C1.30975 21.8481 1.365 21.5036 1.4755 21.2225C1.57189 20.9629 1.74256 20.7374 1.96625 20.5741C2.19424 20.4217 2.46398 20.3439 2.73812 20.3515C2.98187 20.3515 3.198 20.4035 3.38487 20.5091C3.56801 20.607 3.72086 20.7531 3.82687 20.9316C3.94013 21.1196 4.00698 21.3318 4.02187 21.5508H5.265V21.4338C5.25422 21.1344 5.18134 20.8406 5.05098 20.5709C4.92062 20.3013 4.73563 20.0616 4.50775 19.8673C4.2743 19.6694 4.00434 19.5192 3.71313 19.4253C3.39603 19.3179 3.06314 19.2646 2.72837 19.2676C2.14987 19.2676 1.65587 19.3879 1.248 19.63C0.84175 19.8705 0.533 20.2134 0.3185 20.657C0.10725 21.1022 0 21.632 0 22.2479V23.0571C0 23.673 0.104 24.2011 0.313625 24.6431C0.5265 25.0835 0.836875 25.4231 1.24312 25.6604C1.64937 25.896 2.14337 26.013 2.72837 26.013C3.2045 26.013 3.62862 25.9236 4.004 25.7465C4.37775 25.5677 4.67675 25.324 4.89775 25.0088C5.12193 24.6861 5.24934 24.3061 5.265 23.9135V23.79H4.0235C4.00818 23.9992 3.94238 24.2016 3.83175 24.3799C3.72345 24.5524 3.5708 24.6927 3.38975 24.7861C3.18684 24.8843 2.96347 24.9328 2.73812 24.9275C2.46358 24.9353 2.19301 24.8606 1.96137 24.713C1.73885 24.5546 1.56947 24.3325 1.4755 24.076C1.35669 23.7498 1.30045 23.4042 1.30975 23.0571V22.2511ZM14.6981 25.8879H13.1495L10.9753 19.3895H12.4654L13.9214 24.4888H13.9831L15.4261 19.3895H16.8545L14.6981 25.8879Z" fill="#49B05D"/>
</svg>
