<svg width="38" height="38" viewBox="0 0 38 38" fill="none" xmlns="http://www.w3.org/2000/svg">
<path d="M32.0625 16.625V30.875C32.0625 31.5048 31.8123 32.1089 31.3669 32.5543C30.9215 32.9997 30.3174 33.25 29.6875 33.25H8.3125C7.68261 33.25 7.07852 32.9997 6.63312 32.5543C6.18772 32.1089 5.9375 31.5048 5.9375 30.875V16.625C5.9375 15.9951 6.18772 15.391 6.63312 14.9456C7.07852 14.5002 7.68261 14.25 8.3125 14.25H11.875C12.1899 14.25 12.492 14.3751 12.7147 14.5978C12.9374 14.8205 13.0625 15.1225 13.0625 15.4375C13.0625 15.7524 12.9374 16.0544 12.7147 16.2771C12.492 16.4998 12.1899 16.625 11.875 16.625H8.3125V30.875H29.6875V16.625H26.125C25.8101 16.625 25.508 16.4998 25.2853 16.2771C25.0626 16.0544 24.9375 15.7524 24.9375 15.4375C24.9375 15.1225 25.0626 14.8205 25.2853 14.5978C25.508 14.3751 25.8101 14.25 26.125 14.25H29.6875C30.3174 14.25 30.9215 14.5002 31.3669 14.9456C31.8123 15.391 32.0625 15.9951 32.0625 16.625ZM13.9027 10.3401L17.8125 6.42879V20.1875C17.8125 20.5024 17.9376 20.8044 18.1603 21.0271C18.383 21.2498 18.6851 21.375 19 21.375C19.3149 21.375 19.617 21.2498 19.8397 21.0271C20.0624 20.8044 20.1875 20.5024 20.1875 20.1875V6.42879L24.0973 10.3401C24.3202 10.5629 24.6224 10.6881 24.9375 10.6881C25.2526 10.6881 25.5548 10.5629 25.7777 10.3401C26.0005 10.1173 26.1257 9.81508 26.1257 9.49996C26.1257 9.18484 26.0005 8.88262 25.7777 8.6598L19.8402 2.7223C19.7299 2.61189 19.5989 2.5243 19.4547 2.46454C19.3106 2.40478 19.1561 2.37402 19 2.37402C18.8439 2.37402 18.6894 2.40478 18.5453 2.46454C18.4011 2.5243 18.2701 2.61189 18.1598 2.7223L12.2223 8.6598C11.9995 8.88262 11.8743 9.18484 11.8743 9.49996C11.8743 9.81508 11.9995 10.1173 12.2223 10.3401C12.4452 10.5629 12.7474 10.6881 13.0625 10.6881C13.3776 10.6881 13.6798 10.5629 13.9027 10.3401Z" fill="#49B05D"/>
</svg>
