<svg width="39" height="28" viewBox="0 0 39 28" fill="none" xmlns="http://www.w3.org/2000/svg">
<path d="M31.5 16.9167L27.5417 20.875C27.1597 21.2569 26.6736 21.4479 26.0833 21.4479C25.4931 21.4479 25.0069 21.2569 24.625 20.875C24.2431 20.4931 24.0521 20.007 24.0521 19.4167C24.0521 18.8264 24.2431 18.3403 24.625 17.9583L28.5833 14L24.625 10.0417C24.2431 9.65973 24.0521 9.17361 24.0521 8.58334C24.0521 7.99306 24.2431 7.50695 24.625 7.125C25.0069 6.74306 25.4931 6.55209 26.0833 6.55209C26.6736 6.55209 27.1597 6.74306 27.5417 7.125L31.5 11.0833L35.4583 7.125C35.8403 6.74306 36.3264 6.55209 36.9167 6.55209C37.5069 6.55209 37.9931 6.74306 38.375 7.125C38.7569 7.50695 38.9479 7.99306 38.9479 8.58334C38.9479 9.17361 38.7569 9.65973 38.375 10.0417L34.4167 14L38.375 17.9583C38.7569 18.3403 38.9479 18.8264 38.9479 19.4167C38.9479 20.007 38.7569 20.4931 38.375 20.875C37.9931 21.2569 37.5069 21.4479 36.9167 21.4479C36.3264 21.4479 35.8403 21.2569 35.4583 20.875L31.5 16.9167ZM8.58333 20.25H2.33333C1.74306 20.25 1.24861 20.05 0.85 19.65C0.451389 19.25 0.251389 18.7556 0.25 18.1667V9.83334C0.25 9.24306 0.45 8.74862 0.85 8.35C1.25 7.95139 1.74444 7.75139 2.33333 7.75H8.58333L15.4583 0.875004C16.1181 0.215282 16.8736 0.0673655 17.725 0.431254C18.5764 0.795143 19.0014 1.44653 19 2.38542V25.6146C19 26.5521 18.575 27.2035 17.725 27.5688C16.875 27.934 16.1194 27.7861 15.4583 27.125L8.58333 20.25Z" fill="#FC0606"/>
</svg>
