<svg width="117" height="117" viewBox="0 0 117 117" fill="none" xmlns="http://www.w3.org/2000/svg">
<g clip-path="url(#clip0_72_42)">
<path d="M19.5 19.5H48.75V48.75H19.5V19.5ZM97.5 19.5V48.75H68.25V19.5H97.5ZM68.25 73.125H78V63.375H68.25V53.625H78V63.375H87.75V53.625H97.5V63.375H87.75V73.125H97.5V87.75H87.75V97.5H78V87.75H63.375V97.5H53.625V78H68.25V73.125ZM78 73.125V87.75H87.75V73.125H78ZM19.5 97.5V68.25H48.75V97.5H19.5ZM29.25 29.25V39H39V29.25H29.25ZM78 29.25V39H87.75V29.25H78ZM29.25 78V87.75H39V78H29.25ZM19.5 53.625H29.25V63.375H19.5V53.625ZM43.875 53.625H63.375V73.125H53.625V63.375H43.875V53.625ZM53.625 29.25H63.375V48.75H53.625V29.25ZM9.75 9.75V29.25H0V9.75C0 7.16414 1.02723 4.68419 2.85571 2.85571C4.68419 1.02723 7.16414 0 9.75 0L29.25 0V9.75H9.75ZM107.25 0C109.836 0 112.316 1.02723 114.144 2.85571C115.973 4.68419 117 7.16414 117 9.75V29.25H107.25V9.75H87.75V0H107.25ZM9.75 87.75V107.25H29.25V117H9.75C7.16414 117 4.68419 115.973 2.85571 114.144C1.02723 112.316 0 109.836 0 107.25V87.75H9.75ZM107.25 107.25V87.75H117V107.25C117 109.836 115.973 112.316 114.144 114.144C112.316 115.973 109.836 117 107.25 117H87.75V107.25H107.25Z" fill="#49B05D"/>
</g>
<defs>
<clipPath id="clip0_72_42">
<rect width="117" height="117" fill="white"/>
</clipPath>
</defs>
</svg>
