<svg width="125" height="125" viewBox="0 0 125 125" fill="none" xmlns="http://www.w3.org/2000/svg">
<path d="M78.1251 104.167H93.7501C96.5128 104.167 99.1623 103.069 101.116 101.116C103.069 99.1622 104.167 96.5127 104.167 93.75V78.125C104.167 76.7437 104.715 75.4189 105.692 74.4422C106.669 73.4654 107.994 72.9167 109.375 72.9167C110.756 72.9167 112.081 73.4654 113.058 74.4422C114.035 75.4189 114.583 76.7437 114.583 78.125V93.75C114.583 99.2753 112.388 104.574 108.481 108.481C104.574 112.388 99.2754 114.583 93.7501 114.583H31.2501C25.7247 114.583 20.4257 112.388 16.5187 108.481C12.6117 104.574 10.4167 99.2753 10.4167 93.75V78.125C10.4167 76.7437 10.9655 75.4189 11.9422 74.4422C12.919 73.4654 14.2437 72.9167 15.6251 72.9167C17.0064 72.9167 18.3312 73.4654 19.3079 74.4422C20.2847 75.4189 20.8334 76.7437 20.8334 78.125V93.75C20.8334 96.5127 21.9309 99.1622 23.8844 101.116C25.8379 103.069 28.4874 104.167 31.2501 104.167H46.8751C48.2564 104.167 49.5812 104.715 50.5579 105.692C51.5347 106.669 52.0834 107.994 52.0834 109.375C52.0834 110.756 51.5347 112.081 50.5579 113.058C49.5812 114.035 48.2564 114.583 46.8751 114.583H78.1251C76.7437 114.583 75.419 114.035 74.4422 113.058C73.4655 112.081 72.9167 110.756 72.9167 109.375C72.9167 107.994 73.4655 106.669 74.4422 105.692C75.419 104.715 76.7437 104.167 78.1251 104.167ZM20.8334 46.875C20.8334 48.2563 20.2847 49.5811 19.3079 50.5578C18.3312 51.5346 17.0064 52.0833 15.6251 52.0833C14.2437 52.0833 12.919 51.5346 11.9422 50.5578C10.9655 49.5811 10.4167 48.2563 10.4167 46.875V31.25C10.4167 25.7247 12.6117 20.4256 16.5187 16.5186C20.4257 12.6116 25.7247 10.4167 31.2501 10.4167L46.8751 10.4167C48.2564 10.4167 49.5812 10.9654 50.5579 11.9421C51.5347 12.9189 52.0834 14.2437 52.0834 15.625C52.0834 17.0063 51.5347 18.3311 50.5579 19.3078C49.5812 20.2846 48.2564 20.8333 46.8751 20.8333H31.2501C28.4874 20.8333 25.8379 21.9308 23.8844 23.8843C21.9309 25.8378 20.8334 28.4873 20.8334 31.25V46.875ZM104.167 46.875V31.25C104.167 28.4873 103.069 25.8378 101.116 23.8843C99.1623 21.9308 96.5128 20.8333 93.7501 20.8333H78.1251C76.7437 20.8333 75.419 20.2846 74.4422 19.3078C73.4655 18.3311 72.9167 17.0063 72.9167 15.625C72.9167 14.2437 73.4655 12.9189 74.4422 11.9421C75.419 10.9654 76.7437 10.4167 78.1251 10.4167H93.7501C99.2754 10.4167 104.574 12.6116 108.481 16.5186C112.388 20.4256 114.583 25.7247 114.583 31.25V46.875C114.583 48.2563 114.035 49.5811 113.058 50.5578C112.081 51.5346 110.756 52.0833 109.375 52.0833C107.994 52.0833 106.669 51.5346 105.692 50.5578C104.715 49.5811 104.167 48.2563 104.167 46.875Z" fill="#49B05D"/>
<path d="M13 63.5L113 63.5" stroke="#49B05D" stroke-width="3"/>
</svg>
