<svg width="136" height="136" viewBox="0 0 136 136" fill="none" xmlns="http://www.w3.org/2000/svg">
<path d="M48.8752 48.1667H23.3752C21.8723 48.1667 20.4309 47.5696 19.3682 46.5069C18.3055 45.4442 17.7085 44.0029 17.7085 42.5V17C17.7085 15.4971 18.3055 14.0558 19.3682 12.9931C20.4309 11.9304 21.8723 11.3333 23.3752 11.3333C24.8781 11.3333 26.3194 11.9304 27.3821 12.9931C28.4448 14.0558 29.0418 15.4971 29.0418 17V36.8333H48.8752C50.3781 36.8333 51.8194 37.4304 52.8821 38.4931C53.9448 39.5558 54.5418 40.9971 54.5418 42.5C54.5418 44.0029 53.9448 45.4442 52.8821 46.5069C51.8194 47.5696 50.3781 48.1667 48.8752 48.1667Z" fill="#49B05D"/>
<path d="M119 73.6667C117.497 73.6667 116.056 73.0696 114.993 72.0069C113.93 70.9442 113.333 69.5029 113.333 68C113.338 58.024 110.049 48.3256 103.978 40.4096C97.9073 32.4936 89.3933 26.8027 79.7575 24.22C70.1217 21.6373 59.9028 22.3073 50.6866 26.1259C41.4704 29.9444 33.7723 36.6982 28.7868 45.339C28.0338 46.6398 26.795 47.5881 25.3428 47.9755C23.8906 48.3628 22.344 48.1575 21.0433 47.4045C19.7425 46.6516 18.7941 45.4127 18.4068 43.9605C18.0194 42.5083 18.2248 40.9618 18.9778 39.661C25.2125 28.8617 34.837 20.4218 46.358 15.6507C57.8791 10.8796 70.6526 10.044 82.697 13.2735C94.7414 16.5031 105.383 23.6172 112.972 33.5123C120.56 43.4073 124.671 55.5301 124.667 68C124.667 69.5029 124.07 70.9442 123.007 72.0069C121.944 73.0696 120.503 73.6667 119 73.6667ZM112.625 124.667C111.122 124.667 109.681 124.07 108.618 123.007C107.555 121.944 106.958 120.503 106.958 119V99.1667H87.1251C85.6222 99.1667 84.1809 98.5696 83.1182 97.5069C82.0555 96.4442 81.4584 95.0029 81.4584 93.5C81.4584 91.9971 82.0555 90.5558 83.1182 89.4931C84.1809 88.4304 85.6222 87.8333 87.1251 87.8333H112.625C114.128 87.8333 115.569 88.4304 116.632 89.4931C117.695 90.5558 118.292 91.9971 118.292 93.5V119C118.292 120.503 117.695 121.944 116.632 123.007C115.569 124.07 114.128 124.667 112.625 124.667Z" fill="#49B05D"/>
<path d="M68.0002 124.667C52.9768 124.649 38.5738 118.673 27.9507 108.049C17.3275 97.4263 11.3515 83.0234 11.3335 68C11.3335 66.4971 11.9305 65.0558 12.9932 63.9931C14.0559 62.9304 15.4973 62.3333 17.0002 62.3333C18.5031 62.3333 19.9444 62.9304 21.0071 63.9931C22.0698 65.0558 22.6668 66.4971 22.6668 68C22.6625 77.9759 25.951 87.6744 32.022 95.5904C38.0929 103.506 46.6069 109.197 56.2427 111.78C65.8786 114.363 76.0975 113.693 85.3136 109.874C94.5298 106.056 102.228 99.3018 107.213 90.661C107.586 90.0169 108.082 89.4526 108.673 89.0002C109.264 88.5479 109.938 88.2163 110.657 88.0245C111.377 87.8327 112.126 87.7844 112.864 87.8824C113.602 87.9804 114.313 88.2227 114.957 88.5955C115.601 88.9683 116.165 89.4643 116.618 90.0553C117.07 90.6462 117.402 91.3204 117.593 92.0395C117.785 92.7585 117.834 93.5083 117.736 94.246C117.638 94.9837 117.395 95.6949 117.022 96.339C112.039 104.932 104.89 112.07 96.2888 117.04C87.6876 122.01 77.9341 124.64 68.0002 124.667Z" fill="#49B05D"/>
</svg>
