<svg width="30" height="35" viewBox="0 0 30 35" fill="none" xmlns="http://www.w3.org/2000/svg">
<path d="M5 17.5C5 17.6934 5.06585 17.8789 5.18306 18.0156C5.30027 18.1523 5.45924 18.2292 5.625 18.2292H16.6163L13.3075 22.0879C13.2494 22.1556 13.2033 22.236 13.1718 22.3245C13.1403 22.413 13.1241 22.5078 13.124 22.6037C13.1239 22.7971 13.1897 22.9828 13.3069 23.1197C13.4241 23.2566 13.5831 23.3336 13.7489 23.3337C13.9148 23.3339 14.0739 23.2571 14.1912 23.1204L18.5662 18.0163C18.6834 17.8795 18.7492 17.6941 18.7492 17.5007C18.7492 17.3074 18.6834 17.122 18.5662 16.9852L14.1912 11.881C14.0734 11.7482 13.9155 11.6747 13.7516 11.6764C13.5878 11.6781 13.431 11.7547 13.3151 11.8899C13.1992 12.0251 13.1335 12.208 13.1321 12.3992C13.1307 12.5904 13.1937 12.7746 13.3075 12.9121L16.6163 16.7708H5.625C5.45924 16.7708 5.30027 16.8477 5.18306 16.9844C5.06585 17.1212 5 17.3066 5 17.5ZM21.875 2.91667H8.125C7.2964 2.91744 6.50193 3.30181 5.91602 3.98536C5.33011 4.66892 5.00066 5.59581 5 6.5625V12.3958C5 12.5892 5.06585 12.7747 5.18306 12.9114C5.30027 13.0482 5.45924 13.125 5.625 13.125C5.79076 13.125 5.94973 13.0482 6.06694 12.9114C6.18415 12.7747 6.25 12.5892 6.25 12.3958V6.5625C6.25 5.98234 6.44754 5.42594 6.79917 5.01571C7.15081 4.60547 7.62772 4.37501 8.125 4.37501H21.875C22.3723 4.37501 22.8492 4.60547 23.2008 5.01571C23.5525 5.42594 23.75 5.98234 23.75 6.5625V28.4375C23.75 29.0177 23.5525 29.5741 23.2008 29.9843C22.8492 30.3945 22.3723 30.625 21.875 30.625H8.125C7.62772 30.625 7.15081 30.3945 6.79917 29.9843C6.44754 29.5741 6.25 29.0177 6.25 28.4375V22.6042C6.25 22.4108 6.18415 22.2253 6.06694 22.0886C5.94973 21.9518 5.79076 21.875 5.625 21.875C5.45924 21.875 5.30027 21.9518 5.18306 22.0886C5.06585 22.2253 5 22.4108 5 22.6042V28.4375C5.00066 29.4042 5.33011 30.3311 5.91602 31.0146C6.50193 31.6982 7.2964 32.0826 8.125 32.0833H21.875C22.7036 32.0826 23.4981 31.6982 24.084 31.0146C24.6699 30.3311 24.9993 29.4042 25 28.4375V6.5625C24.9993 5.59581 24.6699 4.66892 24.084 3.98536C23.4981 3.30181 22.7036 2.91744 21.875 2.91667Z" fill="#49B05D"/>
</svg>
