<svg width="142" height="142" viewBox="0 0 142 142" fill="none" xmlns="http://www.w3.org/2000/svg">
<path d="M71 0C89.8304 0 107.889 7.48033 121.205 20.7954C134.52 34.1105 142 52.1696 142 71C142 89.8304 134.52 107.889 121.205 121.205C107.889 134.52 89.8304 142 71 142C52.1696 142 34.1105 134.52 20.7954 121.205C7.48033 107.889 0 89.8304 0 71C0 52.1696 7.48033 34.1105 20.7954 20.7954C34.1105 7.48033 52.1696 0 71 0ZM62.1554 85.0073L46.3833 69.225C45.8179 68.6596 45.1466 68.2111 44.4078 67.9051C43.6691 67.599 42.8773 67.4415 42.0776 67.4415C41.278 67.4415 40.4862 67.599 39.7474 67.9051C39.0087 68.2111 38.3374 68.6596 37.772 69.225C36.6301 70.3669 35.9885 71.9157 35.9885 73.5306C35.9885 75.1456 36.6301 76.6944 37.772 77.8363L57.8549 97.9192C58.4187 98.4874 59.0894 98.9384 59.8284 99.2462C60.5674 99.554 61.36 99.7125 62.1605 99.7125C62.961 99.7125 63.7536 99.554 64.4926 99.2462C65.2316 98.9384 65.9023 98.4874 66.4661 97.9192L108.052 56.3233C108.625 55.7602 109.081 55.0893 109.393 54.3491C109.705 53.609 109.868 52.8144 109.872 52.011C109.876 51.2077 109.72 50.4116 109.415 49.6686C109.109 48.9256 108.66 48.2504 108.092 47.682C107.524 47.1136 106.85 46.6633 106.107 46.3569C105.364 46.0505 104.568 45.8942 103.765 45.897C102.962 45.8998 102.167 46.0616 101.426 46.3731C100.686 46.6847 100.014 47.1397 99.4507 47.712L62.1554 85.0073Z" fill="#49B05D"/>
</svg>
