<svg width="34" height="32" viewBox="0 0 34 32" fill="none" xmlns="http://www.w3.org/2000/svg">
<path d="M18.9043 0.375L9.5293 9.75H0.154297V22.25H9.5293L18.9043 31.625V0.375ZM23.9297 3.07695L23.4746 4.7749C28.5592 6.13721 32.0879 10.7358 32.0879 16C32.0879 21.2641 28.5592 25.8627 23.4746 27.2251L23.9297 28.923C29.7744 27.3569 33.8457 22.051 33.8457 16C33.8457 9.94893 29.7744 4.64307 23.9297 3.07695ZM22.7163 7.60479L22.2614 9.30273C25.2969 10.116 27.4004 12.8576 27.4004 16C27.4004 19.1424 25.2969 21.884 22.2614 22.6973L22.7163 24.3952C26.5119 23.3781 29.1582 19.9294 29.1582 16C29.1582 12.0705 26.5119 8.62188 22.7163 7.60479ZM21.503 12.1324L21.0482 13.8304C22.0342 14.0947 22.7129 14.9792 22.7129 16C22.7129 17.0208 22.0342 17.9053 21.0481 18.1696L21.503 19.8676C23.2495 19.3996 24.4708 17.808 24.4708 16C24.4708 14.1921 23.2495 12.6004 21.503 12.1324Z" fill="#0FA958"/>
</svg>
